Coordinates
version=1
nRows=34
nColumns=38
inDegrees=no

Units are S.I. units (second, meters, Newtons, ...)
If the header above contains a line with 'inDegrees', this indicates whether rotational values are in degrees (yes) or radians (no).

endheader
time	pelvis_tilt	pelvis_list	pelvis_rotation	pelvis_tx	pelvis_ty	pelvis_tz	hip_flexion_r	hip_adduction_r	hip_rotation_r	knee_angle_r	ankle_angle_r	subtalar_angle_r	mtp_angle_r	hip_flexion_l	hip_adduction_l	hip_rotation_l	knee_angle_l	ankle_angle_l	subtalar_angle_l	mtp_angle_l	lumbar_extension	lumbar_bending	lumbar_rotation	arm_flex_r	arm_add_r	arm_rot_r	elbow_flex_r	pro_sup_r	wrist_flex_r	wrist_dev_r	arm_flex_l	arm_add_l	arm_rot_l	elbow_flex_l	pro_sup_l	wrist_flex_l	wrist_dev_l
6.66	0.474307	1.52032	-2.04053	0.73854	0.457028	0.945823	-0.229555	-0.0985505	-0.253601	0.166106	0.158572	0	0	-0.125197	0.0518852	-0.311933	0.141761	0.0741512	0	0	-0.804572	0.0107261	-0.0504101	1.46498	-0.464288	1.21516	0.693627	0.568911	0	0	1.23312	-0.398272	0.672597	1.11158	1.09993	0	0
6.67	0.43136	1.51897	-1.99464	0.740211	0.453782	0.945955	-0.219948	-0.102333	-0.262874	0.197245	0.164459	0	0	-0.133494	0.0523528	-0.309256	0.137147	0.0742648	0	0	-0.803203	0.0138076	-0.0518047	1.45204	-0.47051	1.19914	0.704302	0.581148	0	0	1.21482	-0.39572	0.656835	1.12326	1.11636	0	0
6.68	0.387485	1.51729	-1.94742	0.741912	0.450541	0.946092	-0.210589	-0.106135	-0.272059	0.228698	0.1689	0	0	-0.14169	0.0525873	-0.306206	0.133235	0.0741912	0	0	-0.801706	0.0169823	-0.0528768	1.44059	-0.477001	1.18763	0.712775	0.592657	0	0	1.19782	-0.392478	0.643948	1.13303	1.13254	0	0
6.69	0.34957	1.51582	-1.90609	0.7436	0.447295	0.946213	-0.200336	-0.11021	-0.281644	0.261445	0.172815	0	0	-0.149393	0.0528393	-0.302126	0.129536	0.0740398	0	0	-0.799573	0.0198621	-0.0537784	1.4283	-0.482745	1.17164	0.717576	0.630246	0	0	1.18123	-0.386942	0.628292	1.13915	1.18426	0	0
6.7	0.291959	1.5125	-1.845	0.74519	0.444033	0.946537	-0.193856	-0.112406	-0.28778	0.290315	0.173139	0	0	-0.158646	0.0517896	-0.299777	0.127454	0.0749451	0	0	-0.799183	0.0233081	-0.054642	1.42045	-0.48802	1.17195	0.720721	0.630355	0	0	1.16875	-0.384118	0.624469	1.14447	1.18792	0	0
6.71	0.249765	1.50847	-1.79919	0.74671	0.440828	0.946853	-0.18686	-0.115524	-0.294887	0.320991	0.174145	0	0	-0.168169	0.0513616	-0.29556	0.125312	0.0749843	0	0	-0.79978	0.0268226	-0.0586662	1.41609	-0.489441	1.17886	0.722353	0.628534	0	0	1.1601	-0.372168	0.529988	1.15542	1.5708	0	0
6.72	0.203868	1.50585	-1.75006	0.748245	0.437463	0.947185	-0.179316	-0.117143	-0.299761	0.348869	0.172079	0	0	-0.176025	0.0499227	-0.292065	0.123923	0.074859	0	0	-0.797129	0.0301225	-0.0573862	1.40842	-0.495524	1.18384	0.723542	0.625016	0	0	1.14658	-0.379195	0.617111	1.15089	1.21343	0	0
6.73	0.162074	1.50188	-1.70512	0.749612	0.434136	0.947647	-0.17362	-0.118404	-0.304383	0.375124	0.170169	0	0	-0.184806	0.0481674	-0.288777	0.123334	0.0748519	0	0	-0.796343	0.0335133	-0.0588486	1.40285	-0.496918	1.19086	0.721136	0.625814	0	0	1.13775	-0.378143	0.617805	1.15229	1.2143	0	0
6.74	0.126062	1.49685	-1.66607	0.750778	0.430816	0.948212	-0.169431	-0.119306	-0.309033	0.399675	0.169509	0	0	-0.194272	0.0461428	-0.2852	0.123349	0.0746168	0	0	-0.79723	0.0369762	-0.0630914	1.39991	-0.494631	1.20414	0.717733	0.613463	0	0	1.13281	-0.369115	0.531145	1.16109	1.5708	0	0
6.75	0.0922381	1.49484	-1.63003	0.751922	0.427316	0.948632	-0.162052	-0.119693	-0.312176	0.423048	0.169307	0	0	-0.200528	0.0439483	-0.282502	0.123391	0.0741648	0	0	-0.793387	0.0394944	-0.061703	1.3925	-0.498842	1.21501	0.717126	0.596647	0	0	1.12175	-0.378849	0.625181	1.15446	1.1933	0	0
6.76	0.0602116	1.49226	-1.59593	0.752897	0.423817	0.949117	-0.15584	-0.119406	-0.314612	0.443757	0.169551	0	0	-0.206948	0.0414252	-0.280521	0.124166	0.0738635	0	0	-0.790826	0.0421585	-0.0624391	1.38521	-0.499345	1.22209	0.714882	0.590803	0	0	1.11363	-0.37901	0.628399	1.15415	1.18761	0	0
6.77	0.0307693	1.49025	-1.56485	0.753747	0.420335	0.949587	-0.148955	-0.11885	-0.316486	0.462853	0.169567	0	0	-0.212479	0.0388986	-0.278543	0.125276	0.0736698	0	0	-0.787526	0.0444096	-0.0630546	1.37725	-0.499039	1.22758	0.71189	0.587063	0	0	1.10534	-0.379334	0.631471	1.15316	1.184	0	0
6.78	0.0347162	1.48979	-1.56829	0.754373	0.416813	0.949646	-0.134192	-0.127383	-0.33192	0.495843	0.176985	0	0	-0.216385	0.039253	-0.277756	0.126484	0.0734413	0	0	-0.781875	0.0434835	-0.0648149	1.3684	-0.497816	1.23212	0.708209	0.584698	0	0	1.09677	-0.380094	0.634968	1.15225	1.18222	0	0
6.79	0.00714382	1.48746	-1.53947	0.755034	0.413301	0.950186	-0.128026	-0.127284	-0.336649	0.51209	0.181026	0	0	-0.222036	0.0364235	-0.277442	0.128023	0.0724808	0	0	-0.778644	0.0454059	-0.0653054	1.36056	-0.496115	1.23724	0.703811	0.582475	0	0	1.08779	-0.380343	0.637238	1.15169	1.1812	0	0
6.8	-0.0191098	1.48487	-1.51202	0.755621	0.409747	0.950821	-0.123147	-0.126426	-0.341087	0.524811	0.185039	0	0	-0.227963	0.0335434	-0.276983	0.129479	0.0711962	0	0	-0.775753	0.0473208	-0.0655934	1.3528	-0.494365	1.24251	0.699238	0.580036	0	0	1.07835	-0.380382	0.639004	1.15156	1.18078	0	0
6.81	-0.044612	1.48198	-1.4855	0.756098	0.406142	0.951541	-0.119443	-0.124653	-0.344736	0.534432	0.188143	0	0	-0.234244	0.0304433	-0.276555	0.130743	0.0696814	0	0	-0.773216	0.049156	-0.0655161	1.34461	-0.492697	1.24675	0.694533	0.577534	0	0	1.06862	-0.380184	0.640664	1.15144	1.18091	0	0
6.82	-0.069797	1.4787	-1.45933	0.756512	0.402509	0.952341	-0.117005	-0.122144	-0.348528	0.540743	0.190384	0	0	-0.240883	0.0270366	-0.276254	0.131972	0.0675981	0	0	-0.771168	0.0511365	-0.0652137	1.33595	-0.491691	1.24965	0.690875	0.575217	0	0	1.05872	-0.379759	0.642019	1.15141	1.18154	0	0
6.83	-0.0938373	1.47531	-1.43438	0.756883	0.398861	0.953202	-0.115333	-0.119112	-0.352461	0.544186	0.191518	0	0	-0.247471	0.0235728	-0.27578	0.133291	0.0648301	0	0	-0.769342	0.0532209	-0.0644104	1.32682	-0.49207	1.2517	0.688858	0.573488	0	0	1.04864	-0.37861	0.642567	1.15122	1.18255	0	0
6.84	-0.116674	1.47214	-1.4108	0.757217	0.395159	0.95407	-0.114002	-0.11569	-0.356188	0.545158	0.192288	0	0	-0.253881	0.0202167	-0.275069	0.134429	0.0617132	0	0	-0.767309	0.0553147	-0.0632061	1.31715	-0.493517	1.2528	0.68812	0.572482	0	0	1.03826	-0.377108	0.64264	1.15122	1.18356	0	0
6.85	-0.140336	1.46935	-1.38674	0.757439	0.39139	0.954918	-0.112567	-0.111581	-0.359145	0.543994	0.19203	0	0	-0.259951	0.0167017	-0.274271	0.135479	0.0586068	0	0	-0.764781	0.0572823	-0.0615103	1.30704	-0.495331	1.2533	0.687706	0.571909	0	0	1.02758	-0.375231	0.642447	1.15114	1.18414	0	0
6.86	-0.165813	1.467	-1.3611	0.757541	0.387542	0.955749	-0.111154	-0.106738	-0.361898	0.540446	0.19025	0	0	-0.26575	0.0128966	-0.273561	0.136219	0.0552687	0	0	-0.76158	0.0591273	-0.0596853	1.29657	-0.496918	1.2535	0.687264	0.571482	0	0	1.01669	-0.373195	0.64258	1.15068	1.184	0	0
6.87	-0.191623	1.46463	-1.33516	0.757613	0.383644	0.956583	-0.110116	-0.10184	-0.365828	0.535092	0.190233	0	0	-0.271681	0.00891395	-0.273105	0.136628	0.0517771	0	0	-0.758212	0.0610769	-0.0578931	1.28649	-0.498159	1.25459	0.686678	0.570658	0	0	1.00571	-0.370585	0.64277	1.14938	1.18389	0	0
6.88	-0.217662	1.46149	-1.30932	0.757694	0.379808	0.957429	-0.109809	-0.0963865	-0.368861	0.528319	0.188102	0	0	-0.278375	0.00477368	-0.272738	0.136812	0.0483019	0	0	-0.75551	0.0635409	-0.0554539	1.27853	-0.499501	1.25994	0.686387	0.568817	0	0	0.994956	-0.368187	0.64281	1.14767	1.18546	0	0
6.89	-0.242268	1.45906	-1.28492	0.75768	0.375915	0.958225	-0.109003	-0.090895	-0.371926	0.520568	0.186046	0	0	-0.284329	0.00071263	-0.272042	0.136968	0.044692	0	0	-0.751804	0.0656294	-0.0531064	1.26977	-0.500302	1.26372	0.685724	0.567775	0	0	0.984101	-0.365888	0.642932	1.14527	1.18783	0	0
6.9	-0.265912	1.45721	-1.26158	0.757631	0.371993	0.958958	-0.107679	-0.0857214	-0.375181	0.512187	0.185786	0	0	-0.289552	-0.00313935	-0.2715	0.13726	0.0410521	0	0	-0.747421	0.0675456	-0.0506903	1.26053	-0.501047	1.26621	0.685461	0.566579	0	0	0.973491	-0.363757	0.643529	1.14254	1.18953	0	0
6.91	-0.290533	1.45546	-1.23754	0.757512	0.368057	0.959659	-0.106493	-0.0799796	-0.377275	0.50247	0.185094	0	0	-0.294699	-0.00713745	-0.271017	0.137378	0.0371274	0	0	-0.742882	0.069477	-0.047801	1.25086	-0.501617	1.26706	0.684456	0.573652	0	0	0.963706	-0.361607	0.645175	1.13954	1.18927	0	0
6.92	-0.369195	1.45407	-1.16438	0.756236	0.365064	0.960637	-0.096895	-0.054104	-0.333157	0.499314	0.254114	0	0	-0.294968	-0.0177276	-0.274709	0.140656	0.0343081	0	0	-0.738555	0.0727694	-0.0379677	1.24668	-0.502495	1.2812	0.685382	0.553399	0	0	0.956985	-0.360743	0.647468	1.13655	1.19034	0	0
6.93	-0.338572	1.45117	-1.19134	0.757134	0.360133	0.961015	-0.105979	-0.0670464	-0.378319	0.478055	0.182926	0	0	-0.306302	-0.0151397	-0.27024	0.136322	0.0288632	0	0	-0.734243	0.0739663	-0.0422109	1.23662	-0.503626	1.28853	0.685553	0.550076	0	0	0.945266	-0.359385	0.649527	1.13363	1.19013	0	0
6.94	-0.362125	1.45026	-1.16905	0.756856	0.356103	0.961551	-0.104268	-0.0609562	-0.378218	0.465361	0.181565	0	0	-0.311188	-0.0185728	-0.268996	0.13523	0.0246102	0	0	-0.728454	0.0758496	-0.0395542	1.23047	-0.504115	1.30339	0.684593	0.53675	0	0	0.93634	-0.358894	0.653145	1.13048	1.1869	0	0
6.95	-0.382877	1.45075	-1.14994	0.756495	0.352006	0.961873	-0.0993317	-0.0576276	-0.38146	0.457431	0.182323	0	0	-0.314771	-0.0210933	-0.267954	0.134458	0.0211501	0	0	-0.721111	0.0767635	-0.037275	1.22344	-0.503457	1.31478	0.681946	0.5287	0	0	0.927227	-0.358569	0.656983	1.12739	1.18451	0	0
6.96	-0.407416	1.45177	-1.12703	0.75612	0.347875	0.962126	-0.0936845	-0.0541274	-0.384469	0.449017	0.182225	0	0	-0.317996	-0.0236489	-0.265862	0.13286	0.0168786	0	0	-0.712812	0.078143	-0.0354614	1.21837	-0.501609	1.3329	0.67773	0.516006	0	0	0.918329	-0.359463	0.663126	1.12443	1.17942	0	0
6.97	-0.433831	1.45315	-1.10239	0.755712	0.343727	0.962316	-0.0872554	-0.0508697	-0.38747	0.440853	0.18292	0	0	-0.320928	-0.0261141	-0.264329	0.13103	0.0123967	0	0	-0.703974	0.0793931	-0.0335528	1.21241	-0.499598	1.34719	0.673864	0.508343	0	0	0.909828	-0.360394	0.66983	1.12131	1.17557	0	0
6.98	-0.464448	1.45504	-1.0737	0.755232	0.33956	0.962454	-0.0801163	-0.0470923	-0.388568	0.432732	0.182286	0	0	-0.323422	-0.0286124	-0.263248	0.128748	0.00798172	0	0	-0.694367	0.0806348	-0.0313608	1.20578	-0.497049	1.35888	0.668284	0.516475	0	0	0.901645	-0.361205	0.676941	1.11732	1.1804	0	0
6.99	-0.488919	1.45625	-1.05104	0.754689	0.335443	0.962697	-0.0740716	-0.043757	-0.389833	0.424212	0.182079	0	0	-0.327059	-0.0307784	-0.262785	0.126054	0.00327497	0	0	-0.685883	0.0816596	-0.0294372	1.20255	-0.49625	1.38407	0.667859	0.482504	0	0	0.894851	-0.363461	0.688716	1.11467	1.15867	0	0
